Start = 10.000000, duration = 60, magnitude = 100.000000, direction = 90
datacolumns 10
datarows 149
range 20.29343941 20.36
endheader
time	ground_force1_vx	ground_force1_vy	ground_force1_vz	ground_force1_px	ground_force1_py	ground_force1_pz	ground_torque1_x	ground_torque1_y	ground_torque1_z
20.29343941	1.989876135e-16	3.249714344	0	0	0	0	0	0	0
20.29433862	2.003578369e-16	3.27209179	0	0	0	0	0	0	0
20.29523783	2.017280502e-16	3.294469073	0	0	0	0	0	0	0
20.29613705	2.030982535e-16	3.31684619	0	0	0	0	0	0	0
20.29703626	2.044684465e-16	3.339223141	0	0	0	0	0	0	0
20.29793547	2.058386294e-16	3.361599924	0	0	0	0	0	0	0
20.29893109	2.073557106e-16	3.386375741	0	0	0	0	0	0	0
20.29992672	2.088727791e-16	3.411151351	0	0	0	0	0	0	0
20.3	2.08984445e-16	3.412974993	0	0	0	0	0	0	0
20.30000203	2.089875375e-16	3.413025497	0	0	0	0	0	0	0
20.30000406	2.089906301e-16	3.413076002	0	0	0	0	0	0	0
20.30001421	2.090060927e-16	3.413328526	0	0	0	0	0	0	0
20.30006495	2.090834058e-16	3.414591145	0	0	0	0	0	0	0
20.30031864	2.094699708e-16	3.420904231	0	0	0	0	0	0	0
20.30085015	2.102798388e-16	3.434130378	0	0	0	0	0	0	0
20.30138166	2.11089703e-16	3.447356464	0	0	0	0	0	0	0
20.30210702	2.121949414e-16	3.465406377	0	0	0	0	0	0	0
20.30283238	2.133001729e-16	3.483456177	0	0	0	0	0	0	0
20.30373079	2.146690675e-16	3.505811923	0	0	0	0	0	0	0
20.3046292	2.160379514e-16	3.528167494	0	0	0	0	0	0	0
20.30552761	2.174068245e-16	3.550522888	0	0	0	0	0	0	0
20.30642602	2.187756867e-16	3.572878105	0	0	0	0	0	0	0
20.30732443	2.20144538e-16	3.595233142	0	0	0	0	0	0	0
20.30822284	2.215133782e-16	3.617588	0	0	0	0	0	0	0
20.30912125	2.228822074e-16	3.639942677	0	0	0	0	0	0	0
20.31	2.242210727e-16	3.661808006	0	0	0	0	0	0	0
20.31000178	2.242237841e-16	3.661852287	0	0	0	0	0	0	0
20.31000356	2.242264955e-16	3.661896567	0	0	0	0	0	0	0
20.31001246	2.242400525e-16	3.66211797	0	0	0	0	0	0	0
20.31005695	2.243078376e-16	3.663224985	0	0	0	0	0	0	0
20.3102794	2.246467627e-16	3.668760051	0	0	0	0	0	0	0
20.31065944	2.252257948e-16	3.678216364	0	0	0	0	0	0	0
20.31112996	2.259426666e-16	3.689923769	0	0	0	0	0	0	0
20.31172299	2.268461957e-16	3.704679518	0	0	0	0	0	0	0
20.31243597	2.279324565e-16	3.722419503	0	0	0	0	0	0	0
20.31314894	2.290187101e-16	3.740159371	0	0	0	0	0	0	0
20.31391196	2.301812062e-16	3.759144373	0	0	0	0	0	0	0
20.31467498	2.31343694e-16	3.77812924	0	0	0	0	0	0	0
20.31580228	2.330611656e-16	3.80617768	0	0	0	0	0	0	0
20.31692959	2.347786189e-16	3.83422582	0	0	0	0	0	0	0
20.31784148	2.361678774e-16	3.856914133	0	0	0	0	0	0	0
20.31875337	2.375571237e-16	3.879602246	0	0	0	0	0	0	0
20.31966527	2.389463577e-16	3.90229016	0	0	0	0	0	0	0
20.32	2.394563103e-16	3.910618318	0	0	0	0	0	0	0
20.32000125	2.394582219e-16	3.910649537	0	0	0	0	0	0	0
20.32000251	2.394601335e-16	3.910680756	0	0	0	0	0	0	0
20.32000878	2.394696917e-16	3.910836852	0	0	0	0	0	0	0
20.32004015	2.395174823e-16	3.911617332	0	0	0	0	0	0	0
20.320197	2.397564351e-16	3.915519728	0	0	0	0	0	0	0
20.32051205	2.402363878e-16	3.923357951	0	0	0	0	0	0	0
20.32109453	2.411237624e-16	3.937849877	0	0	0	0	0	0	0
20.32167701	2.420111318e-16	3.95234172	0	0	0	0	0	0	0
20.3226517	2.434959996e-16	3.976591451	0	0	0	0	0	0	0
20.3236264	2.44980853e-16	4.000840947	0	0	0	0	0	0	0
20.32460109	2.464656919e-16	4.025090208	0	0	0	0	0	0	0
20.32557579	2.479505164e-16	4.049339231	0	0	0	0	0	0	0
20.32655048	2.494353263e-16	4.073588016	0	0	0	0	0	0	0
20.32752518	2.509201214e-16	4.097836561	0	0	0	0	0	0	0
20.32828006	2.520700549e-16	4.116616401	0	0	0	0	0	0	0
20.32903494	2.532199796e-16	4.135396095	0	0	0	0	0	0	0
20.32978982	2.543698952e-16	4.154175643	0	0	0	0	0	0	0
20.33	2.546900634e-16	4.159404386	0	0	0	0	0	0	0
20.33000135	2.546921245e-16	4.159438047	0	0	0	0	0	0	0
20.33000271	2.546941856e-16	4.159471708	0	0	0	0	0	0	0
20.33000947	2.547044913e-16	4.159640012	0	0	0	0	0	0	0
20.3300433	2.547560196e-16	4.160481532	0	0	0	0	0	0	0
20.33021243	2.550136606e-16	4.164689129	0	0	0	0	0	0	0
20.33071175	2.55774264e-16	4.177110726	0	0	0	0	0	0	0
20.33121106	2.565348635e-16	4.189532259	0	0	0	0	0	0	0
20.33187522	2.575465576e-16	4.206054477	0	0	0	0	0	0	0
20.33271251	2.58821962e-16	4.226883411	0	0	0	0	0	0	0
20.33375248	2.604060904e-16	4.252754192	0	0	0	0	0	0	0
20.3338996	2.606301976e-16	4.25641414	0	0	0	0	0	0	0
20.33398847	2.607655615e-16	4.2586248	0	0	0	0	0	0	0
20.33408733	2.609161526e-16	4.261084139	0	0	0	0	0	0	0
20.33417738	2.610533208e-16	4.263324266	0	0	0	0	0	0	0
20.33420562	2.610963308e-16	4.264026673	0	0	0	0	0	0	0
20.33422032	2.611187282e-16	4.26439245	0	0	0	0	0	0	0
20.3342305	2.61134238e-16	4.264645744	0	0	0	0	0	0	0
20.33423878	2.61146846e-16	4.264851648	0	0	0	0	0	0	0
20.33423988	2.611485268e-16	4.264879098	0	0	0	0	0	0	0
20.33424099	2.611502076e-16	4.264906548	0	0	0	0	0	0	0
20.3342465	2.611586117e-16	4.265043798	0	0	0	0	0	0	0
20.33427409	2.612006323e-16	4.265730045	0	0	0	0	0	0	0
20.33441202	2.614107347e-16	4.269161278	0	0	0	0	0	0	0
20.33510169	2.624612423e-16	4.286317369	0	0	0	0	0	0	0
20.33579135	2.635117422e-16	4.303473334	0	0	0	0	0	0	0
20.33648101	2.645622342e-16	4.320629171	0	0	0	0	0	0	0
20.33717067	2.656127185e-16	4.337784881	0	0	0	0	0	0	0
20.33786033	2.66663195e-16	4.354940464	0	0	0	0	0	0	0
20.33854999	2.677136635e-16	4.372095918	0	0	0	0	0	0	0
20.33923965	2.687641242e-16	4.389251242	0	0	0	0	0	0	0
20.33992932	2.69814577e-16	4.406406438	0	0	0	0	0	0	0
20.34	2.699222375e-16	4.408164668	0	0	0	0	0	0	0
20.34000039	2.699228369e-16	4.408174457	0	0	0	0	0	0	0
20.34000079	2.699234364e-16	4.408184246	0	0	0	0	0	0	0
20.34000275	2.699264335e-16	4.408233193	0	0	0	0	0	0	0
20.34001259	2.69941419e-16	4.408477926	0	0	0	0	0	0	0
20.34006179	2.700163468e-16	4.409701589	0	0	0	0	0	0	0
20.34030775	2.703909852e-16	4.415819898	0	0	0	0	0	0	0
20.34062422	2.708730121e-16	4.423691994	0	0	0	0	0	0	0
20.3407017	2.709910117e-16	4.425619074	0	0	0	0	0	0	0
20.3407677	2.710915365e-16	4.427260769	0	0	0	0	0	0	0
20.34078679	2.711206165e-16	4.427735682	0	0	0	0	0	0	0
20.34080371	2.711463955e-16	4.428156685	0	0	0	0	0	0	0
20.34081261	2.711599436e-16	4.428377942	0	0	0	0	0	0	0
20.3408188	2.711693817e-16	4.428532079	0	0	0	0	0	0	0
20.34082069	2.711722526e-16	4.428578963	0	0	0	0	0	0	0
20.34082139	2.711733162e-16	4.428596334	0	0	0	0	0	0	0
20.34082209	2.711743799e-16	4.428613705	0	0	0	0	0	0	0
20.34082558	2.711796982e-16	4.428700558	0	0	0	0	0	0	0
20.34084304	2.712062895e-16	4.429134827	0	0	0	0	0	0	0
20.34093033	2.713392459e-16	4.43130617	0	0	0	0	0	0	0
20.34136679	2.72004026e-16	4.442162853	0	0	0	0	0	0	0
20.34189697	2.728115455e-16	4.455350648	0	0	0	0	0	0	0
20.34242715	2.736190602e-16	4.468538364	0	0	0	0	0	0	0
20.34316868	2.747484744e-16	4.486983097	0	0	0	0	0	0	0
20.3439102	2.758778792e-16	4.505427677	0	0	0	0	0	0	0
20.34455839	2.768650995e-16	4.521550208	0	0	0	0	0	0	0
20.34520657	2.778523126e-16	4.537672622	0	0	0	0	0	0	0
20.34585475	2.788395185e-16	4.553794917	0	0	0	0	0	0	0
20.34650293	2.798267171e-16	4.569917094	0	0	0	0	0	0	0
20.34715111	2.808139084e-16	4.586039152	0	0	0	0	0	0	0
20.34779929	2.818010924e-16	4.60216109	0	0	0	0	0	0	0
20.34844747	2.827882691e-16	4.618282908	0	0	0	0	0	0	0
20.34909565	2.837754384e-16	4.634404606	0	0	0	0	0	0	0
20.34974383	2.847626003e-16	4.650526184	0	0	0	0	0	0	0
20.35	2.851527382e-16	4.65689762	0	0	0	0	0	0	0
20.35000088	2.851540777e-16	4.656919495	0	0	0	0	0	0	0
20.35000176	2.851554171e-16	4.65694137	0	0	0	0	0	0	0
20.35000616	2.851621143e-16	4.657050744	0	0	0	0	0	0	0
20.35002814	2.851956003e-16	4.657597611	0	0	0	0	0	0	0
20.35013808	2.853630302e-16	4.660331948	0	0	0	0	0	0	0
20.35060801	2.860787163e-16	4.672019989	0	0	0	0	0	0	0
20.35107794	2.867943985e-16	4.683707966	0	0	0	0	0	0	0
20.351759	2.87831602e-16	4.700646785	0	0	0	0	0	0	0
20.35263538	2.891662658e-16	4.7224435	0	0	0	0	0	0	0
20.35338535	2.90308401e-16	4.741095983	0	0	0	0	0	0	0
20.35413532	2.914505261e-16	4.759748301	0	0	0	0	0	0	0
20.35475817	2.923990526e-16	4.775238915	0	0	0	0	0	0	0
20.35538102	2.933475722e-16	4.790729414	0	0	0	0	0	0	0
20.35593221	2.941869587e-16	4.804437638	0	0	0	0	0	0	0
20.3564834	2.950263398e-16	4.81814577	0	0	0	0	0	0	0
20.35703459	2.958657153e-16	4.831853812	0	0	0	0	0	0	0
20.35758578	2.967050852e-16	4.845561763	0	0	0	0	0	0	0
20.35813697	2.975444495e-16	4.859269623	0	0	0	0	0	0	0
20.35868816	2.983838082e-16	4.872977391	0	0	0	0	0	0	0
20.35935082	2.993929105e-16	4.889457283	0	0	0	0	0	0	0
20.36	3.003814712e-16	4.905601703	0	0	0	0	0	0	0
